# xmcd CD database file
#
# Track frame offsets:
#	150
#	15950
#	27845
#	41852
#	52877
#	66395
#	77695
#	90167
#	102707
#	115490
#	127595
#	140567
#	153270
#	166057
#	177672
#
# Disc length: 2651 seconds
#
# Revision: 3
# Processed by: cddbd v1.5.1PL0 Copyright (c) Steve Scherf et al.
# Submitted via: CDex 1.50
#
DISCID=ba0a590f
DTITLE=Various Artist - Jump'n Jive
DYEAR=1999
DGENRE=jump blues
TTITLE0=Louis Prima With Sam Butera And The Witnesses - Jump, Jive An' Wail
TTITLE1=Louis Jordan And His Timpany Five - Dad Gum Ya Hide Boy
TTITLE2=T-Bone Walker - She's The Un-Sleepin'-Est Woman
TTITLE3=Nat King Cole and Nellie Lutcher - For You My Love
TTITLE4=Jay McShann - On The Sunny Side Of The Street
TTITLE5=Amos Milburn - Jitterbug Fashion Parade
TTITLE6=T-Bone Walker - I Know Your Wig Is Gone
TTITLE7=Charles Brown - Evening Shadows
TTITLE8=Nat King Cole With The Billy May Orchestra - Walkin'
TTITLE9=Louis Jordan And His Timpany Five - I Seen What'cha Done
TTITLE10=Julia Lee and Jay McShann - Come On Over To My House
TTITLE11=Clyde Bernhardt - Craklin' Bread
TTITLE12=T-Bone Walker - Don't Leave Me Baby
TTITLE13=Illinois Jacquet - Illinois Blows The Blues
TTITLE14=Louis Prima With Sam Butera And The Witnesses - Just A Gigolo - I Ain't Got Nobody
EXTD=Aladdin/Capitol Records - 7243 4 97870 2 5 YEAR: 1999
EXTT0=
EXTT1=
EXTT2=
EXTT3=
EXTT4=
EXTT5=
EXTT6=
EXTT7=
EXTT8=
EXTT9=
EXTT10=
EXTT11=
EXTT12=
EXTT13=
EXTT14=
PLAYORDER=
